<svg xmlns="http://www.w3.org/2000/svg" viewBox="0 0 1200 675" role="img" aria-labelledby="title desc">
<title id="title">Zugspitze terrain profile</title>
<desc id="desc">Stylised east to west elevation cross-section through Zugspitze, based on NASA SRTM 90 metre terrain data via OpenTopoData. It is an illustration, not a route map or navigational aid.</desc>
<defs><linearGradient id="paper" x2="0" y2="1"><stop stop-color="#f6f0e5"/><stop offset="1" stop-color="#e8e2d3"/></linearGradient><clipPath id="ridge"><path d="M 0 527.7 L 0.0 527.7 L 15.0 527.2 L 30.0 523.2 L 45.0 517.0 L 60.0 516.0 L 75.0 521.8 L 90.0 526.8 L 105.0 525.6 L 120.0 519.4 L 135.0 515.0 L 150.0 515.5 L 165.0 513.8 L 180.0 500.5 L 195.0 471.0 L 210.0 433.0 L 225.0 402.1 L 240.0 392.9 L 255.0 399.1 L 270.0 397.5 L 285.0 392.8 L 300.0 393.4 L 315.0 395.3 L 330.0 413.2 L 345.0 450.3 L 360.0 488.5 L 375.0 519.2 L 390.0 535.7 L 405.0 532.2 L 420.0 519.4 L 435.0 509.8 L 450.0 500.4 L 465.0 488.5 L 480.0 471.3 L 495.0 436.1 L 510.0 389.8 L 525.0 352.1 L 540.0 313.0 L 555.0 269.3 L 570.0 223.4 L 585.0 169.6 L 600.0 139.9 L 615.0 149.8 L 630.0 185.9 L 645.0 233.9 L 660.0 262.4 L 675.0 254.5 L 690.0 217.7 L 705.0 188.0 L 720.0 186.8 L 735.0 197.0 L 750.0 209.4 L 765.0 224.2 L 780.0 234.5 L 795.0 243.5 L 810.0 263.8 L 825.0 294.3 L 840.0 328.5 L 855.0 359.2 L 870.0 387.1 L 885.0 410.0 L 900.0 424.3 L 915.0 454.3 L 930.0 499.4 L 945.0 509.0 L 960.0 460.9 L 975.0 400.3 L 990.0 375.8 L 1005.0 371.3 L 1020.0 366.3 L 1035.0 372.9 L 1050.0 381.9 L 1065.0 376.3 L 1080.0 351.0 L 1095.0 307.2 L 1110.0 267.8 L 1125.0 250.1 L 1140.0 247.2 L 1155.0 260.8 L 1170.0 287.2 L 1185.0 320.4 L 1200.0 355.6 L 1200 675 L 0 675 Z"/></clipPath></defs>
<rect width="1200" height="675" fill="url(#paper)"/>
<g fill="none" stroke="#c9c1af" stroke-opacity=".48" stroke-width="2">
<path d="M-80 72 C135 -35 301 143 468 59 S801 -27 1260 80"/><path d="M-80 100 C135 -7 301 171 468 87 S801 1 1260 108"/>
<path d="M-80 128 C135 21 301 199 468 115 S801 29 1260 136"/><path d="M-80 156 C135 49 301 227 468 143 S801 57 1260 164"/>
</g>
<circle cx="995" cy="185" r="75" fill="#ddc9a4" fill-opacity=".42"/>
<path d="M 0 571.6 L 0.0 571.6 L 15.0 571.4 L 30.0 569.7 L 45.0 567.1 L 60.0 566.7 L 75.0 569.2 L 90.0 571.3 L 105.0 570.8 L 120.0 568.1 L 135.0 566.3 L 150.0 566.5 L 165.0 565.8 L 180.0 560.2 L 195.0 547.8 L 210.0 531.8 L 225.0 518.9 L 240.0 515.0 L 255.0 517.6 L 270.0 516.9 L 285.0 515.0 L 300.0 515.2 L 315.0 516.0 L 330.0 523.5 L 345.0 539.1 L 360.0 555.2 L 375.0 568.1 L 390.0 575.0 L 405.0 573.5 L 420.0 568.1 L 435.0 564.1 L 450.0 560.2 L 465.0 555.2 L 480.0 548.0 L 495.0 533.1 L 510.0 513.7 L 525.0 497.9 L 540.0 481.4 L 555.0 463.1 L 570.0 443.8 L 585.0 421.2 L 600.0 408.8 L 615.0 412.9 L 630.0 428.1 L 645.0 448.2 L 660.0 460.2 L 675.0 456.9 L 690.0 441.5 L 705.0 429.0 L 720.0 428.5 L 735.0 432.7 L 750.0 437.9 L 765.0 444.2 L 780.0 448.5 L 795.0 452.3 L 810.0 460.8 L 825.0 473.6 L 840.0 488.0 L 855.0 500.8 L 870.0 512.6 L 885.0 522.2 L 900.0 528.2 L 915.0 540.8 L 930.0 559.8 L 945.0 563.8 L 960.0 543.6 L 975.0 518.1 L 990.0 507.9 L 1005.0 505.9 L 1020.0 503.8 L 1035.0 506.6 L 1050.0 510.4 L 1065.0 508.1 L 1080.0 497.4 L 1095.0 479.0 L 1110.0 462.5 L 1125.0 455.0 L 1140.0 453.8 L 1155.0 459.5 L 1170.0 470.6 L 1185.0 484.6 L 1200.0 499.4 L 1200 675 L 0 675 Z" fill="#a9bea9"/><path d="M 0 568.0 L 0.0 568.0 L 15.0 567.7 L 30.0 565.1 L 45.0 561.0 L 60.0 560.4 L 75.0 564.2 L 90.0 567.4 L 105.0 566.6 L 120.0 562.6 L 135.0 559.7 L 150.0 560.1 L 165.0 559.0 L 180.0 550.3 L 195.0 531.1 L 210.0 506.4 L 225.0 486.4 L 240.0 480.4 L 255.0 484.4 L 270.0 483.4 L 285.0 480.3 L 300.0 480.7 L 315.0 481.9 L 330.0 493.6 L 345.0 517.7 L 360.0 542.5 L 375.0 562.5 L 390.0 573.2 L 405.0 570.9 L 420.0 562.6 L 435.0 556.4 L 450.0 550.3 L 465.0 542.5 L 480.0 531.4 L 495.0 508.4 L 510.0 478.3 L 525.0 453.9 L 540.0 428.4 L 555.0 400.0 L 570.0 370.2 L 585.0 335.2 L 600.0 315.9 L 615.0 322.4 L 630.0 345.9 L 645.0 377.1 L 660.0 395.6 L 675.0 390.4 L 690.0 366.5 L 705.0 347.2 L 720.0 346.4 L 735.0 353.0 L 750.0 361.1 L 765.0 370.8 L 780.0 377.4 L 795.0 383.3 L 810.0 396.4 L 825.0 416.3 L 840.0 438.5 L 855.0 458.5 L 870.0 476.6 L 885.0 491.5 L 900.0 500.8 L 915.0 520.3 L 930.0 549.6 L 945.0 555.9 L 960.0 524.6 L 975.0 485.2 L 990.0 469.3 L 1005.0 466.3 L 1020.0 463.1 L 1035.0 467.4 L 1050.0 473.3 L 1065.0 469.6 L 1080.0 453.2 L 1095.0 424.7 L 1110.0 399.1 L 1125.0 387.6 L 1140.0 385.7 L 1155.0 394.5 L 1170.0 411.7 L 1185.0 433.3 L 1200.0 456.2 L 1200 675 L 0 675 Z" fill="#668b73"/>
<path d="M 0 527.7 L 0.0 527.7 L 15.0 527.2 L 30.0 523.2 L 45.0 517.0 L 60.0 516.0 L 75.0 521.8 L 90.0 526.8 L 105.0 525.6 L 120.0 519.4 L 135.0 515.0 L 150.0 515.5 L 165.0 513.8 L 180.0 500.5 L 195.0 471.0 L 210.0 433.0 L 225.0 402.1 L 240.0 392.9 L 255.0 399.1 L 270.0 397.5 L 285.0 392.8 L 300.0 393.4 L 315.0 395.3 L 330.0 413.2 L 345.0 450.3 L 360.0 488.5 L 375.0 519.2 L 390.0 535.7 L 405.0 532.2 L 420.0 519.4 L 435.0 509.8 L 450.0 500.4 L 465.0 488.5 L 480.0 471.3 L 495.0 436.1 L 510.0 389.8 L 525.0 352.1 L 540.0 313.0 L 555.0 269.3 L 570.0 223.4 L 585.0 169.6 L 600.0 139.9 L 615.0 149.8 L 630.0 185.9 L 645.0 233.9 L 660.0 262.4 L 675.0 254.5 L 690.0 217.7 L 705.0 188.0 L 720.0 186.8 L 735.0 197.0 L 750.0 209.4 L 765.0 224.2 L 780.0 234.5 L 795.0 243.5 L 810.0 263.8 L 825.0 294.3 L 840.0 328.5 L 855.0 359.2 L 870.0 387.1 L 885.0 410.0 L 900.0 424.3 L 915.0 454.3 L 930.0 499.4 L 945.0 509.0 L 960.0 460.9 L 975.0 400.3 L 990.0 375.8 L 1005.0 371.3 L 1020.0 366.3 L 1035.0 372.9 L 1050.0 381.9 L 1065.0 376.3 L 1080.0 351.0 L 1095.0 307.2 L 1110.0 267.8 L 1125.0 250.1 L 1140.0 247.2 L 1155.0 260.8 L 1170.0 287.2 L 1185.0 320.4 L 1200.0 355.6 L 1200 675 L 0 675 Z" fill="#173b2d"/>
<g clip-path="url(#ridge)"><path d="M 0 572.7 L 0.0 572.7 L 15.0 572.2 L 30.0 568.2 L 45.0 562.0 L 60.0 561.0 L 75.0 566.8 L 90.0 571.8 L 105.0 570.6 L 120.0 564.4 L 135.0 560.0 L 150.0 560.5 L 165.0 558.8 L 180.0 545.5 L 195.0 516.0 L 210.0 478.0 L 225.0 447.1 L 240.0 437.9 L 255.0 444.1 L 270.0 442.5 L 285.0 437.8 L 300.0 438.4 L 315.0 440.3 L 330.0 458.2 L 345.0 495.3 L 360.0 533.5 L 375.0 564.2 L 390.0 580.7 L 405.0 577.2 L 420.0 564.4 L 435.0 554.8 L 450.0 545.4 L 465.0 533.5 L 480.0 516.3 L 495.0 481.1 L 510.0 434.8 L 525.0 397.1 L 540.0 358.0 L 555.0 314.3 L 570.0 268.4 L 585.0 214.6 L 600.0 184.9 L 615.0 194.8 L 630.0 230.9 L 645.0 278.9 L 660.0 307.4 L 675.0 299.5 L 690.0 262.7 L 705.0 233.0 L 720.0 231.8 L 735.0 242.0 L 750.0 254.4 L 765.0 269.2 L 780.0 279.5 L 795.0 288.5 L 810.0 308.8 L 825.0 339.3 L 840.0 373.5 L 855.0 404.2 L 870.0 432.1 L 885.0 455.0 L 900.0 469.3 L 915.0 499.3 L 930.0 544.4 L 945.0 554.0 L 960.0 505.9 L 975.0 445.3 L 990.0 420.8 L 1005.0 416.3 L 1020.0 411.3 L 1035.0 417.9 L 1050.0 426.9 L 1065.0 421.3 L 1080.0 396.0 L 1095.0 352.2 L 1110.0 312.8 L 1125.0 295.1 L 1140.0 292.2 L 1155.0 305.8 L 1170.0 332.2 L 1185.0 365.4 L 1200.0 400.6 L 1200 675 L 0 675 Z" fill="none" stroke="#d8e2d2" stroke-opacity=".20" stroke-width="3"/><path d="M 0 622.7 L 0.0 622.7 L 15.0 622.2 L 30.0 618.2 L 45.0 612.0 L 60.0 611.0 L 75.0 616.8 L 90.0 621.8 L 105.0 620.6 L 120.0 614.4 L 135.0 610.0 L 150.0 610.5 L 165.0 608.8 L 180.0 595.5 L 195.0 566.0 L 210.0 528.0 L 225.0 497.1 L 240.0 487.9 L 255.0 494.1 L 270.0 492.5 L 285.0 487.8 L 300.0 488.4 L 315.0 490.3 L 330.0 508.2 L 345.0 545.3 L 360.0 583.5 L 375.0 614.2 L 390.0 630.7 L 405.0 627.2 L 420.0 614.4 L 435.0 604.8 L 450.0 595.4 L 465.0 583.5 L 480.0 566.3 L 495.0 531.1 L 510.0 484.8 L 525.0 447.1 L 540.0 408.0 L 555.0 364.3 L 570.0 318.4 L 585.0 264.6 L 600.0 234.9 L 615.0 244.8 L 630.0 280.9 L 645.0 328.9 L 660.0 357.4 L 675.0 349.5 L 690.0 312.7 L 705.0 283.0 L 720.0 281.8 L 735.0 292.0 L 750.0 304.4 L 765.0 319.2 L 780.0 329.5 L 795.0 338.5 L 810.0 358.8 L 825.0 389.3 L 840.0 423.5 L 855.0 454.2 L 870.0 482.1 L 885.0 505.0 L 900.0 519.3 L 915.0 549.3 L 930.0 594.4 L 945.0 604.0 L 960.0 555.9 L 975.0 495.3 L 990.0 470.8 L 1005.0 466.3 L 1020.0 461.3 L 1035.0 467.9 L 1050.0 476.9 L 1065.0 471.3 L 1080.0 446.0 L 1095.0 402.2 L 1110.0 362.8 L 1125.0 345.1 L 1140.0 342.2 L 1155.0 355.8 L 1170.0 382.2 L 1185.0 415.4 L 1200.0 450.6 L 1200 675 L 0 675 Z" fill="none" stroke="#d8e2d2" stroke-opacity=".20" stroke-width="3"/><path d="M 0 672.7 L 0.0 672.7 L 15.0 672.2 L 30.0 668.2 L 45.0 662.0 L 60.0 661.0 L 75.0 666.8 L 90.0 671.8 L 105.0 670.6 L 120.0 664.4 L 135.0 660.0 L 150.0 660.5 L 165.0 658.8 L 180.0 645.5 L 195.0 616.0 L 210.0 578.0 L 225.0 547.1 L 240.0 537.9 L 255.0 544.1 L 270.0 542.5 L 285.0 537.8 L 300.0 538.4 L 315.0 540.3 L 330.0 558.2 L 345.0 595.3 L 360.0 633.5 L 375.0 664.2 L 390.0 680.7 L 405.0 677.2 L 420.0 664.4 L 435.0 654.8 L 450.0 645.4 L 465.0 633.5 L 480.0 616.3 L 495.0 581.1 L 510.0 534.8 L 525.0 497.1 L 540.0 458.0 L 555.0 414.3 L 570.0 368.4 L 585.0 314.6 L 600.0 284.9 L 615.0 294.8 L 630.0 330.9 L 645.0 378.9 L 660.0 407.4 L 675.0 399.5 L 690.0 362.7 L 705.0 333.0 L 720.0 331.8 L 735.0 342.0 L 750.0 354.4 L 765.0 369.2 L 780.0 379.5 L 795.0 388.5 L 810.0 408.8 L 825.0 439.3 L 840.0 473.5 L 855.0 504.2 L 870.0 532.1 L 885.0 555.0 L 900.0 569.3 L 915.0 599.3 L 930.0 644.4 L 945.0 654.0 L 960.0 605.9 L 975.0 545.3 L 990.0 520.8 L 1005.0 516.3 L 1020.0 511.3 L 1035.0 517.9 L 1050.0 526.9 L 1065.0 521.3 L 1080.0 496.0 L 1095.0 452.2 L 1110.0 412.8 L 1125.0 395.1 L 1140.0 392.2 L 1155.0 405.8 L 1170.0 432.2 L 1185.0 465.4 L 1200.0 500.6 L 1200 675 L 0 675 Z" fill="none" stroke="#d8e2d2" stroke-opacity=".20" stroke-width="3"/><path d="M0 618 C230 570 405 650 640 588 S1020 610 1200 560" fill="none" stroke="#c5d7c2" stroke-opacity=".18" stroke-width="4"/></g>
</svg>